<svg width="64" height="64" viewBox="0 0 64 64" fill="none" xmlns="http://www.w3.org/2000/svg">
<rect width="64" height="64" fill="white"/>
<path d="M19.5071 32.5L9.31906 12.4858V32.5H5.41525V5.19238H9.68088L20.0783 25.7588L30.4948 5.19238H34.7414V32.5H30.8567V12.4858L20.6687 32.5H19.5071ZM40.2273 5.19238H60.1272V9.09619H44.1311V16.9038H57.7849V20.8076H44.1311V32.5H40.2273V5.19238Z" fill="#D9D9D9"/>
<path d="M19.5071 32.5L18.5829 32.9704L18.8713 33.537H19.5071V32.5ZM9.31906 12.4858L10.2432 12.0154L8.28208 12.4858H9.31906ZM9.31906 32.5V33.537H10.356V32.5H9.31906ZM5.41525 32.5H4.37827V33.537H5.41525V32.5ZM5.41525 5.19238V4.1554H4.37827V5.19238H5.41525ZM9.68088 5.19238L10.6063 4.72452L10.3186 4.1554H9.68088V5.19238ZM20.0783 25.7588L19.1529 26.2267L20.0775 28.0555L21.0034 26.2273L20.0783 25.7588ZM30.4948 5.19238V4.1554H29.8577L29.5698 4.72384L30.4948 5.19238ZM34.7414 5.19238H35.7784V4.1554H34.7414V5.19238ZM34.7414 32.5V33.537H35.7784V32.5H34.7414ZM30.8567 32.5H29.8197V33.537H30.8567V32.5ZM30.8567 12.4858H31.8936L29.9325 12.0154L30.8567 12.4858ZM20.6687 32.5V33.537H21.3044L21.5928 32.9704L20.6687 32.5ZM19.5071 32.5L20.4312 32.0296L10.2432 12.0154L9.31906 12.4858L8.39493 12.9563L18.5829 32.9704L19.5071 32.5ZM9.31906 12.4858H8.28208V32.5H9.31906H10.356V12.4858H9.31906ZM9.31906 32.5V31.463H5.41525V32.5V33.537H9.31906V32.5ZM5.41525 32.5H6.45223V5.19238H5.41525H4.37827V32.5H5.41525ZM5.41525 5.19238V6.22936H9.68088V5.19238V4.1554H5.41525V5.19238ZM9.68088 5.19238L8.75544 5.66024L19.1529 26.2267L20.0783 25.7588L21.0038 25.2909L10.6063 4.72452L9.68088 5.19238ZM20.0783 25.7588L21.0034 26.2273L31.4199 5.66092L30.4948 5.19238L29.5698 4.72384L19.1532 25.2902L20.0783 25.7588ZM30.4948 5.19238V6.22936H34.7414V5.19238V4.1554H30.4948V5.19238ZM34.7414 5.19238H33.7044V32.5H34.7414H35.7784V5.19238H34.7414ZM34.7414 32.5V31.463H30.8567V32.5V33.537H34.7414V32.5ZM30.8567 32.5H31.8936V12.4858H30.8567H29.8197V32.5H30.8567ZM30.8567 12.4858L29.9325 12.0154L19.7445 32.0296L20.6687 32.5L21.5928 32.9704L31.7808 12.9563L30.8567 12.4858ZM20.6687 32.5V31.463H19.5071V32.5V33.537H20.6687V32.5ZM40.2273 5.19238V4.1554H39.1903V5.19238H40.2273ZM60.1272 5.19238H61.1642V4.1554H60.1272V5.19238ZM60.1272 9.09619V10.1332H61.1642V9.09619H60.1272ZM44.1311 9.09619V8.05921H43.0942V9.09619H44.1311ZM44.1311 16.9038H43.0942V17.9408H44.1311V16.9038ZM57.7849 16.9038H58.8219V15.8668H57.7849V16.9038ZM57.7849 20.8076V21.8446H58.8219V20.8076H57.7849ZM44.1311 20.8076V19.7706H43.0942V20.8076H44.1311ZM44.1311 32.5V33.537H45.1681V32.5H44.1311ZM40.2273 32.5H39.1903V33.537H40.2273V32.5ZM40.2273 5.19238V6.22936H60.1272V5.19238V4.1554H40.2273V5.19238ZM60.1272 5.19238H59.0902V9.09619H60.1272H61.1642V5.19238H60.1272ZM60.1272 9.09619V8.05921H44.1311V9.09619V10.1332H60.1272V9.09619ZM44.1311 9.09619H43.0942V16.9038H44.1311H45.1681V9.09619H44.1311ZM44.1311 16.9038V17.9408H57.7849V16.9038V15.8668H44.1311V16.9038ZM57.7849 16.9038H56.748V20.8076H57.7849H58.8219V16.9038H57.7849ZM57.7849 20.8076V19.7706H44.1311V20.8076V21.8446H57.7849V20.8076ZM44.1311 20.8076H43.0942V32.5H44.1311H45.1681V20.8076H44.1311ZM44.1311 32.5V31.463H40.2273V32.5V33.537H44.1311V32.5ZM40.2273 32.5H41.2643V5.19238H40.2273H39.1903V32.5H40.2273Z" fill="#242424"/>
<path d="M4.72581 54.6646H9.5612V59.5H4.72581V54.6646ZM14.874 39.6248C14.874 39.172 14.9602 38.7461 15.1327 38.3472C15.3052 37.9375 15.5424 37.5871 15.8443 37.296C16.1462 36.9941 16.4966 36.757 16.8955 36.5845C17.3052 36.4012 17.7364 36.3095 18.1892 36.3095H30.7709C31.2237 36.3095 31.6496 36.4012 32.0485 36.5845C32.4582 36.757 32.814 36.9941 33.1159 37.296C33.4177 37.5871 33.6549 37.9375 33.8274 38.3472C33.9999 38.7461 34.0862 39.172 34.0862 39.6248V42.6166H30.7709V39.6248H18.1892V56.1848H30.7709V53.2091H34.0862V56.1848C34.0862 56.6376 33.9999 57.0688 33.8274 57.4785C33.6549 57.8774 33.4177 58.2278 33.1159 58.5297C32.814 58.8316 32.4582 59.0687 32.0485 59.2412C31.6496 59.4137 31.2237 59.5 30.7709 59.5H18.1892C17.7364 59.5 17.3052 59.4137 16.8955 59.2412C16.4966 59.0687 16.1462 58.8316 15.8443 58.5297C15.5424 58.2278 15.3052 57.8774 15.1327 57.4785C14.9602 57.0688 14.874 56.6376 14.874 56.1848V39.6248ZM58.9346 56.1848C58.9346 56.6376 58.8483 57.0688 58.6758 57.4785C58.5033 57.8774 58.2661 58.2278 57.9643 58.5297C57.6624 58.8316 57.3066 59.0687 56.8969 59.2412C56.498 59.4137 56.0722 59.5 55.6194 59.5H42.3746C41.9218 59.5 41.4905 59.4137 41.0808 59.2412C40.6819 59.0687 40.3315 58.8316 40.0297 58.5297C39.7278 58.2278 39.4906 57.8774 39.3181 57.4785C39.1456 57.0688 39.0594 56.6376 39.0594 56.1848V39.6248C39.0594 39.172 39.1456 38.7461 39.3181 38.3472C39.4906 37.9375 39.7278 37.5871 40.0297 37.296C40.3315 36.9941 40.6819 36.757 41.0808 36.5845C41.4905 36.4012 41.9218 36.3095 42.3746 36.3095H55.6194C56.0722 36.3095 56.498 36.4012 56.8969 36.5845C57.3066 36.757 57.6624 36.9941 57.9643 37.296C58.2661 37.5871 58.5033 37.9375 58.6758 38.3472C58.8483 38.7461 58.9346 39.172 58.9346 39.6248V56.1848ZM42.3746 39.6248V56.1848H55.6194V39.6248H42.3746Z" fill="#D9D9D9"/>
<path d="M4.72581 54.6646V53.6497H3.71089V54.6646H4.72581ZM9.5612 54.6646H10.5761V53.6497H9.5612V54.6646ZM9.5612 59.5V60.5149H10.5761V59.5H9.5612ZM4.72581 59.5H3.71089V60.5149H4.72581V59.5ZM4.72581 54.6646V55.6795H9.5612V54.6646V53.6497H4.72581V54.6646ZM9.5612 54.6646H8.54628V59.5H9.5612H10.5761V54.6646H9.5612ZM9.5612 59.5V58.4851H4.72581V59.5V60.5149H9.5612V59.5ZM4.72581 59.5H5.74072V54.6646H4.72581H3.71089V59.5H4.72581ZM15.1327 38.3472L16.0643 38.75L16.0681 38.741L15.1327 38.3472ZM15.8443 37.296L16.5488 38.0266L16.5554 38.0202L16.5619 38.0137L15.8443 37.296ZM16.8955 36.5845L17.2983 37.5161L17.3099 37.5109L16.8955 36.5845ZM32.0485 36.5845L31.6248 37.5067L31.6396 37.5135L31.6547 37.5198L32.0485 36.5845ZM33.1159 37.296L32.3982 38.0137L32.4047 38.0202L32.4114 38.0266L33.1159 37.296ZM33.8274 38.3472L32.892 38.741L32.8959 38.75L33.8274 38.3472ZM34.0862 42.6166V43.6315H35.1011V42.6166H34.0862ZM30.7709 42.6166H29.756V43.6315H30.7709V42.6166ZM30.7709 39.6248H31.7859V38.6098H30.7709V39.6248ZM18.1892 39.6248V38.6098H17.1743V39.6248H18.1892ZM18.1892 56.1848H17.1743V57.1997H18.1892V56.1848ZM30.7709 56.1848V57.1997H31.7859V56.1848H30.7709ZM30.7709 53.2091V52.1942H29.756V53.2091H30.7709ZM34.0862 53.2091H35.1011V52.1942H34.0862V53.2091ZM33.8274 57.4785L34.759 57.8814L34.7628 57.8724L33.8274 57.4785ZM32.0485 59.2412L31.6547 58.3058L31.6457 58.3097L32.0485 59.2412ZM16.8955 59.2412L16.4926 60.1728L16.5016 60.1766L16.8955 59.2412ZM15.1327 57.4785L14.1973 57.8724L14.2012 57.8813L15.1327 57.4785ZM14.874 39.6248H15.8889C15.8889 39.3046 15.9491 39.0164 16.0643 38.75L15.1327 38.3472L14.2012 37.9444C13.9714 38.4758 13.8591 39.0393 13.8591 39.6248H14.874ZM15.1327 38.3472L16.0681 38.741C16.1905 38.4503 16.3517 38.2166 16.5488 38.0266L15.8443 37.296L15.1398 36.5654C14.7331 36.9576 14.42 37.4247 14.1973 37.9533L15.1327 38.3472ZM15.8443 37.296L16.5619 38.0137C16.7717 37.804 17.0147 37.6386 17.2983 37.516L16.8955 36.5845L16.4926 35.6529C15.9784 35.8753 15.5207 36.1843 15.1266 36.5784L15.8443 37.296ZM16.8955 36.5845L17.3099 37.5109C17.588 37.3865 17.8779 37.3244 18.1892 37.3244V36.3095V35.2946C17.5949 35.2946 17.0223 35.4159 16.481 35.658L16.8955 36.5845ZM18.1892 36.3095V37.3244H30.7709V36.3095V35.2946H18.1892V36.3095ZM30.7709 36.3095V37.3244C31.0822 37.3244 31.363 37.3864 31.6248 37.5067L32.0485 36.5845L32.4722 35.6622C31.9362 35.4159 31.3653 35.2946 30.7709 35.2946V36.3095ZM32.0485 36.5845L31.6547 37.5198C31.9484 37.6435 32.193 37.8085 32.3982 38.0137L33.1159 37.296L33.8335 36.5784C33.435 36.1798 32.968 35.8704 32.4424 35.6491L32.0485 36.5845ZM33.1159 37.296L32.4114 38.0266C32.6084 38.2166 32.7696 38.4503 32.892 38.741L33.8274 38.3472L34.7628 37.9533C34.5402 37.4247 34.2271 36.9576 33.8203 36.5654L33.1159 37.296ZM33.8274 38.3472L32.8959 38.75C33.0111 39.0164 33.0713 39.3046 33.0713 39.6248H34.0862H35.1011C35.1011 39.0393 34.9888 38.4758 34.759 37.9444L33.8274 38.3472ZM34.0862 39.6248H33.0713V42.6166H34.0862H35.1011V39.6248H34.0862ZM34.0862 42.6166V41.6016H30.7709V42.6166V43.6315H34.0862V42.6166ZM30.7709 42.6166H31.7859V39.6248H30.7709H29.756V42.6166H30.7709ZM30.7709 39.6248V38.6098H18.1892V39.6248V40.6397H30.7709V39.6248ZM18.1892 39.6248H17.1743V56.1848H18.1892H19.2041V39.6248H18.1892ZM18.1892 56.1848V57.1997H30.7709V56.1848V55.1698H18.1892V56.1848ZM30.7709 56.1848H31.7859V53.2091H30.7709H29.756V56.1848H30.7709ZM30.7709 53.2091V54.2241H34.0862V53.2091V52.1942H30.7709V53.2091ZM34.0862 53.2091H33.0713V56.1848H34.0862H35.1011V53.2091H34.0862ZM34.0862 56.1848H33.0713C33.0713 56.5049 33.0111 56.802 32.892 57.0847L33.8274 57.4785L34.7628 57.8724C34.9888 57.3356 35.1011 56.7703 35.1011 56.1848H34.0862ZM33.8274 57.4785L32.8959 57.0757C32.7732 57.3593 32.6079 57.6023 32.3982 57.812L33.1159 58.5297L33.8335 59.2473C34.2276 58.8533 34.5366 58.3956 34.759 57.8813L33.8274 57.4785ZM33.1159 58.5297L32.3982 57.812C32.193 58.0173 31.9484 58.1822 31.6547 58.3059L32.0485 59.2412L32.4424 60.1766C32.968 59.9553 33.435 59.6459 33.8335 59.2473L33.1159 58.5297ZM32.0485 59.2412L31.6457 58.3097C31.3793 58.4249 31.0911 58.4851 30.7709 58.4851V59.5V60.5149C31.3564 60.5149 31.9199 60.4026 32.4513 60.1728L32.0485 59.2412ZM30.7709 59.5V58.4851H18.1892V59.5V60.5149H30.7709V59.5ZM18.1892 59.5V58.4851C17.8691 58.4851 17.572 58.4249 17.2893 58.3059L16.8955 59.2412L16.5016 60.1766C17.0383 60.4026 17.6037 60.5149 18.1892 60.5149V59.5ZM16.8955 59.2412L17.2983 58.3097C17.0147 58.1871 16.7717 58.0217 16.5619 57.812L15.8443 58.5297L15.1266 59.2473C15.5207 59.6414 15.9784 59.9504 16.4926 60.1728L16.8955 59.2412ZM15.8443 58.5297L16.5619 57.812C16.3522 57.6023 16.1869 57.3593 16.0643 57.0757L15.1327 57.4785L14.2012 57.8813C14.4236 58.3956 14.7326 58.8533 15.1266 59.2473L15.8443 58.5297ZM15.1327 57.4785L16.0681 57.0847C15.9491 56.802 15.8889 56.5049 15.8889 56.1848H14.874H13.8591C13.8591 56.7703 13.9714 57.3356 14.1973 57.8724L15.1327 57.4785ZM14.874 56.1848H15.8889V39.6248H14.874H13.8591V56.1848H14.874ZM58.6758 57.4785L59.6074 57.8814L59.6112 57.8724L58.6758 57.4785ZM56.8969 59.2412L56.5031 58.3058L56.4941 58.3097L56.8969 59.2412ZM41.0808 59.2412L40.678 60.1728L40.687 60.1766L41.0808 59.2412ZM39.3181 57.4785L38.3827 57.8724L38.3866 57.8813L39.3181 57.4785ZM39.3181 38.3472L40.2497 38.75L40.2535 38.741L39.3181 38.3472ZM40.0297 37.296L40.7342 38.0266L40.7408 38.0202L40.7473 38.0137L40.0297 37.296ZM41.0808 36.5845L41.4837 37.5161L41.4953 37.5109L41.0808 36.5845ZM56.8969 36.5845L56.4732 37.5067L56.488 37.5135L56.5031 37.5198L56.8969 36.5845ZM57.9643 37.296L57.2466 38.0137L57.2531 38.0202L57.2598 38.0266L57.9643 37.296ZM58.6758 38.3472L57.7404 38.741L57.7443 38.75L58.6758 38.3472ZM42.3746 39.6248V38.6098H41.3597V39.6248H42.3746ZM42.3746 56.1848H41.3597V57.1997H42.3746V56.1848ZM55.6194 56.1848V57.1997H56.6343V56.1848H55.6194ZM55.6194 39.6248H56.6343V38.6098H55.6194V39.6248ZM58.9346 56.1848H57.9197C57.9197 56.5049 57.8595 56.802 57.7405 57.0847L58.6758 57.4785L59.6112 57.8724C59.8372 57.3356 59.9495 56.7703 59.9495 56.1848H58.9346ZM58.6758 57.4785L57.7443 57.0757C57.6217 57.3593 57.4563 57.6023 57.2466 57.812L57.9643 58.5297L58.6819 59.2473C59.076 58.8533 59.385 58.3956 59.6074 57.8813L58.6758 57.4785ZM57.9643 58.5297L57.2466 57.812C57.0414 58.0173 56.7969 58.1822 56.5031 58.3059L56.8969 59.2412L57.2908 60.1766C57.8164 59.9553 58.2834 59.6459 58.6819 59.2473L57.9643 58.5297ZM56.8969 59.2412L56.4941 58.3097C56.2277 58.4249 55.9395 58.4851 55.6194 58.4851V59.5V60.5149C56.2048 60.5149 56.7683 60.4026 57.2998 60.1728L56.8969 59.2412ZM55.6194 59.5V58.4851H42.3746V59.5V60.5149H55.6194V59.5ZM42.3746 59.5V58.4851C42.0545 58.4851 41.7573 58.4249 41.4747 58.3059L41.0808 59.2412L40.687 60.1766C41.2237 60.4026 41.7891 60.5149 42.3746 60.5149V59.5ZM41.0808 59.2412L41.4837 58.3097C41.2001 58.1871 40.957 58.0217 40.7473 57.812L40.0297 58.5297L39.312 59.2473C39.7061 59.6414 40.1638 59.9504 40.678 60.1728L41.0808 59.2412ZM40.0297 58.5297L40.7473 57.812C40.5376 57.6023 40.3723 57.3593 40.2496 57.0757L39.3181 57.4785L38.3866 57.8813C38.6089 58.3956 38.918 58.8533 39.312 59.2473L40.0297 58.5297ZM39.3181 57.4785L40.2535 57.0847C40.1345 56.802 40.0743 56.5049 40.0743 56.1848H39.0593H38.0444C38.0444 56.7703 38.1567 57.3356 38.3827 57.8724L39.3181 57.4785ZM39.0593 56.1848H40.0743V39.6248H39.0593H38.0444V56.1848H39.0593ZM39.0593 39.6248H40.0743C40.0743 39.3046 40.1344 39.0164 40.2496 38.75L39.3181 38.3472L38.3866 37.9444C38.1567 38.4758 38.0444 39.0393 38.0444 39.6248H39.0593ZM39.3181 38.3472L40.2535 38.741C40.3759 38.4503 40.5371 38.2166 40.7342 38.0266L40.0297 37.296L39.3252 36.5654C38.9185 36.9576 38.6053 37.4247 38.3827 37.9533L39.3181 38.3472ZM40.0297 37.296L40.7473 38.0137C40.957 37.804 41.2001 37.6386 41.4837 37.516L41.0808 36.5845L40.678 35.6529C40.1638 35.8753 39.7061 36.1843 39.312 36.5784L40.0297 37.296ZM41.0808 36.5845L41.4953 37.5109C41.7734 37.3865 42.0633 37.3244 42.3746 37.3244V36.3095V35.2946C41.7802 35.2946 41.2076 35.4159 40.6664 35.658L41.0808 36.5845ZM42.3746 36.3095V37.3244H55.6194V36.3095V35.2946H42.3746V36.3095ZM55.6194 36.3095V37.3244C55.9306 37.3244 56.2114 37.3864 56.4732 37.5067L56.8969 36.5845L57.3207 35.6622C56.7846 35.4159 56.2137 35.2946 55.6194 35.2946V36.3095ZM56.8969 36.5845L56.5031 37.5198C56.7969 37.6435 57.0414 37.8085 57.2466 38.0137L57.9643 37.296L58.6819 36.5784C58.2834 36.1798 57.8164 35.8704 57.2908 35.6491L56.8969 36.5845ZM57.9643 37.296L57.2598 38.0266C57.4568 38.2166 57.6181 38.4503 57.7405 38.741L58.6758 38.3472L59.6112 37.9533C59.3886 37.4247 59.0755 36.9576 58.6688 36.5654L57.9643 37.296ZM58.6758 38.3472L57.7443 38.75C57.8595 39.0164 57.9197 39.3046 57.9197 39.6248H58.9346H59.9495C59.9495 39.0393 59.8372 38.4758 59.6074 37.9444L58.6758 38.3472ZM58.9346 39.6248H57.9197V56.1848H58.9346H59.9495V39.6248H58.9346ZM42.3746 39.6248H41.3597V56.1848H42.3746H43.3895V39.6248H42.3746ZM42.3746 56.1848V57.1997H55.6194V56.1848V55.1698H42.3746V56.1848ZM55.6194 56.1848H56.6343V39.6248H55.6194H54.6044V56.1848H55.6194ZM55.6194 39.6248V38.6098H42.3746V39.6248V40.6397H55.6194V39.6248Z" fill="#242424"/>
</svg>
